
        <svg xmlns="http://www.w3.org/2000/svg" xmlns:xlink="http://www.w3.org/1999/xlink" version="1.1" width="3165.014025043058" 
        height="2587.367527270374" viewBox="0 0 3165.014025043058 2587.367527270374">
			
			<g transform="scale(8.2507012521529) translate(10, 10)">
				<defs id="SvgjsDefs1341"></defs><g id="SvgjsG1342" featureKey="U6MYgK-0" transform="matrix(15.459433402020096,0,0,15.459433402020096,1.0319596486115596,-75.02689845437511)" fill="#fff"><path d="M3.94 13.620000000000001 c-0.42666 -0.17334 -0.82332 -0.36666 -1.19 -0.58 s-0.68332 -0.47 -0.94998 -0.77 s-0.47332 -0.65334 -0.61998 -1.06 s-0.22 -0.89 -0.22 -1.45 c0 -0.69334 0.12 -1.3033 0.36 -1.83 s0.57666 -0.97 1.01 -1.33 s0.95668 -0.63334 1.57 -0.82 s1.2933 -0.28 2.04 -0.28 c0.61334 0 1.24 0.06334 1.88 0.19 s1.4067 0.34332 2.3 0.64998 l-1.36 2.44 c-0.86666 -0.41334 -1.78 -0.62 -2.74 -0.62 c-0.18666 0 -0.38 0.02 -0.58 0.06 s-0.38 0.11 -0.54 0.21 s-0.29334 0.23666 -0.4 0.41 s-0.16 0.4 -0.16 0.68 c0 0.22666 0.04334 0.41332 0.13 0.55998 s0.19666 0.27332 0.33 0.37998 s0.28668 0.19666 0.46002 0.27 s0.34668 0.14334 0.52002 0.21 l1.18 0.46 c0.50666 0.2 0.97 0.41 1.39 0.63 s0.77666 0.48666 1.07 0.8 s0.52 0.69668 0.68 1.15 s0.24 1.02 0.24 1.7 s-0.12334 1.3 -0.37 1.86 s-0.60666 1.0367 -1.08 1.43 s-1.0567 0.7 -1.75 0.92 s-1.4867 0.33 -2.38 0.33 c-0.41334 0 -0.79334 -0.01334 -1.14 -0.04 s-0.68332 -0.07332 -1.01 -0.13998 s-0.65332 -0.14666 -0.97998 -0.24 s-0.67666 -0.21334 -1.05 -0.36 l0.68 -2.8 c0.54666 0.14666 1.0833 0.27666 1.61 0.39 s1.0633 0.17 1.61 0.17 c0.73334 0 1.2933 -0.09666 1.68 -0.29 s0.61332 -0.56334 0.67998 -1.11 c0.02666 -0.28 -0.0066796 -0.51334 -0.10002 -0.7 s-0.22668 -0.34332 -0.40002 -0.46998 s-0.36668 -0.23 -0.58002 -0.31 l-0.64 -0.24 z M12.4 5.699999999999999 l3.28 -0.000019531 l0 5.4 l4.26 0 l0 -5.4 l3.28 0 l0 14.3 l-3.28 0 l0 -6.1 c-0.08 0.01334 -0.15334 0.02668 -0.22 0.04002 l-0.24 0.04 l-3.36 0 l-0.44 -0.08 l0 6.1 l-3.28 0 l0 -14.3 z"></path></g><g id="SvgjsG1343" featureKey="Nr57KM-0" transform="matrix(1.0479533424779814,0,0,1.0479533424779814,4.308351453572616,272.25721566323256)" fill="#f8b500"><path d="M5.88 5.48 c1.84 0 3.2 0.54006 4.08 1.6201 l-1.56 1.42 c-0.24 -0.37334 -0.58 -0.67334 -1.02 -0.9 s-0.94666 -0.34 -1.52 -0.34 c-0.82666 0 -1.49 0.20334 -1.99 0.61 s-0.75 0.93 -0.75 1.57 c0 1.0667 0.70666 1.8133 2.12 2.24 l1.78 0.58 c1 0.32 1.7633 0.76666 2.29 1.34 s0.79 1.36 0.79 2.36 c0 1.3067 -0.46334 2.3634 -1.39 3.17 s-2.1034 1.21 -3.53 1.21 c-2.04 0 -3.5466 -0.65334 -4.52 -1.96 l1.58 -1.36 c0.30666 0.48 0.72666 0.85334 1.26 1.12 s1.1133 0.4 1.74 0.4 c0.78666 0 1.4533 -0.22666 2 -0.68 s0.82 -1.0133 0.82 -1.68 c0 -0.49334 -0.16666 -0.90668 -0.5 -1.24 s-0.93334 -0.63334 -1.8 -0.9 l-1.26 -0.42 c-1.2667 -0.42666 -2.1534 -0.97 -2.66 -1.63 s-0.76 -1.51 -0.76 -2.55 c0 -1.1067 0.44666 -2.0466 1.34 -2.82 s2.0466 -1.16 3.46 -1.16 z M32.752 5.84 l6.06 14.16 l-2.24 0 l-1.42 -3.5 l-6.74 0 l-1.4 3.5 l-2.24 0 l6.24 -14.16 l1.74 0 z M29.092000000000002 14.82 l5.36 0 l-2.64 -6.5 l-0.04 0 z M63.56400000000001 5.84 l0 1.8 l-8.02 10.56 l8.14 0 l0 1.8 l-10.58 0 l0 -1.78 l8.06 -10.58 l-7.82 0 l0 -1.8 l10.22 0 z M89.056 5.84 l0 1.8 l-8.02 10.56 l8.14 0 l0 1.8 l-10.58 0 l0 -1.78 l8.06 -10.58 l-7.82 0 l0 -1.8 l10.22 0 z M111.44800000000001 5.84 l6.06 14.16 l-2.24 0 l-1.42 -3.5 l-6.74 0 l-1.4 3.5 l-2.24 0 l6.24 -14.16 l1.74 0 z M107.78800000000001 14.82 l5.36 0 l-2.64 -6.5 l-0.04 0 z M140.58 5.84 l0 1.8 l-4.56 0 l0 12.36 l-1.92 0 l0 -12.36 l-4.56 0 l0 -1.8 l11.04 0 z M177.36400000000003 5.84 l0 5.88 l7.34 0 l0 -5.88 l1.92 0 l0 14.16 l-1.92 0 l0 -6.48 l-7.34 0 l0 6.48 l-1.92 0 l0 -14.16 l1.92 0 z M210.39600000000002 5.48 c2.1066 0 3.8634 0.69998 5.27 2.1 s2.11 3.18 2.11 5.34 c0 1.3733 -0.31334 2.63 -0.94 3.77 s-1.51 2.0366 -2.65 2.69 s-2.4034 0.98 -3.79 0.98 c-1.3733 0 -2.6266 -0.32334 -3.76 -0.97 s-2.02 -1.54 -2.66 -2.68 s-0.96 -2.4034 -0.96 -3.79 c0 -2.1066 0.69 -3.8734 2.07 -5.3 s3.15 -2.14 5.31 -2.14 z M205.056 12.92 c0 1.6 0.49998 2.94 1.5 4.02 s2.28 1.62 3.84 1.62 c1.5333 0 2.8066 -0.53334 3.82 -1.6 s1.52 -2.4134 1.52 -4.04 c0 -1.6133 -0.5 -2.9566 -1.5 -4.03 s-2.2866 -1.61 -3.86 -1.61 c-1.52 0 -2.7866 0.53334 -3.8 1.6 s-1.52 2.4134 -1.52 4.04 z M238.228 5.48 c1.84 0 3.2 0.54006 4.08 1.6201 l-1.56 1.42 c-0.24 -0.37334 -0.58 -0.67334 -1.02 -0.9 s-0.94666 -0.34 -1.52 -0.34 c-0.82666 0 -1.49 0.20334 -1.99 0.61 s-0.75 0.93 -0.75 1.57 c0 1.0667 0.70666 1.8133 2.12 2.24 l1.78 0.58 c1 0.32 1.7633 0.76666 2.29 1.34 s0.79 1.36 0.79 2.36 c0 1.3067 -0.46334 2.3634 -1.39 3.17 s-2.1034 1.21 -3.53 1.21 c-2.04 0 -3.5466 -0.65334 -4.52 -1.96 l1.58 -1.36 c0.30666 0.48 0.72666 0.85334 1.26 1.12 s1.1133 0.4 1.74 0.4 c0.78666 0 1.4533 -0.22666 2 -0.68 s0.82 -1.0133 0.82 -1.68 c0 -0.49334 -0.16666 -0.90668 -0.5 -1.24 s-0.93334 -0.63334 -1.8 -0.9 l-1.26 -0.42 c-1.2667 -0.42666 -2.1534 -0.97 -2.66 -1.63 s-0.76 -1.51 -0.76 -2.55 c0 -1.1067 0.44666 -2.0466 1.34 -2.82 s2.0466 -1.16 3.46 -1.16 z M262.98 5.48 c1.84 0 3.2 0.54006 4.08 1.6201 l-1.56 1.42 c-0.24 -0.37334 -0.58 -0.67334 -1.02 -0.9 s-0.94666 -0.34 -1.52 -0.34 c-0.82666 0 -1.49 0.20334 -1.99 0.61 s-0.75 0.93 -0.75 1.57 c0 1.0667 0.70666 1.8133 2.12 2.24 l1.78 0.58 c1 0.32 1.7633 0.76666 2.29 1.34 s0.79 1.36 0.79 2.36 c0 1.3067 -0.46334 2.3634 -1.39 3.17 s-2.1034 1.21 -3.53 1.21 c-2.04 0 -3.5466 -0.65334 -4.52 -1.96 l1.58 -1.36 c0.30666 0.48 0.72666 0.85334 1.26 1.12 s1.1133 0.4 1.74 0.4 c0.78666 0 1.4533 -0.22666 2 -0.68 s0.82 -1.0133 0.82 -1.68 c0 -0.49334 -0.16666 -0.90668 -0.5 -1.24 s-0.93334 -0.63334 -1.8 -0.9 l-1.26 -0.42 c-1.2667 -0.42666 -2.1534 -0.97 -2.66 -1.63 s-0.76 -1.51 -0.76 -2.55 c0 -1.1067 0.44666 -2.0466 1.34 -2.82 s2.0466 -1.16 3.46 -1.16 z M289.85200000000003 5.84 l6.06 14.16 l-2.24 0 l-1.42 -3.5 l-6.74 0 l-1.4 3.5 l-2.24 0 l6.24 -14.16 l1.74 0 z M286.192 14.82 l5.36 0 l-2.64 -6.5 l-0.04 0 z M313.30400000000003 5.84 l0 14.16 l-1.92 0 l0 -14.16 l1.92 0 z M333.096 5.84 l7.8 11.64 l0.04 0 l0 -11.64 l1.92 0 l0 14.16 l-2.44 0 l-7.88 -11.64 l-0.04 0 l0 11.64 l-1.92 0 l0 -14.16 l2.52 0 z"></path></g>
			</g>
		</svg>
	